<svg xmlns="http://www.w3.org/2000/svg" width="256" height="256" viewBox="0 0 256 256"><rect width="256" height="256" rx="40" fill="#2563eb"/><path d="M52 68c0-9 7-16 16-16h52l18 20h50c9 0 16 7 16 16v100c0 9-7 16-16 16H68c-9 0-16-7-16-16V68z" fill="#dbeafe"/><path d="M80 104h96M80 136h96M80 168h55" stroke="#2563eb" stroke-width="14" stroke-linecap="round"/><path d="M178 154l22 22-35 35-22 4 4-22z" fill="#f59e0b" stroke="#92400e" stroke-width="7" stroke-linejoin="round"/><path d="M179 154l11-11c4-4 10-4 14 0l8 8c4 4 4 10 0 14l-12 11z" fill="#fbbf24" stroke="#92400e" stroke-width="7"/></svg>
